<svg width="185" height="22" viewBox="0 0 185 22" fill="none" xmlns="http://www.w3.org/2000/svg">
<g clip-path="url(#clip0_1_211)">
<path fill-rule="evenodd" clip-rule="evenodd" d="M12.4008 0.523811C12.603 0.523811 12.8041 0.528698 13.0039 0.538492C13.0079 0.538689 13.0113 0.535482 13.0113 0.531456C13.0113 0.527566 13.0145 0.524413 13.0184 0.524413H24.191C24.4296 0.524534 24.623 0.719436 24.623 0.960118C24.623 1.07568 24.5775 1.18651 24.4965 1.26824L21.5669 4.22129H27.8066C28.2241 4.22129 28.6057 4.46787 28.7501 4.85968C29.2425 6.19614 29.5119 7.64196 29.5119 9.15127C29.5119 15.9581 24.0398 21.4762 17.2897 21.4762C17.0876 21.4762 16.8866 21.4707 16.6869 21.4609C16.6827 21.4607 16.6792 21.464 16.6792 21.4682C16.6792 21.4723 16.6759 21.4756 16.6718 21.4756H5.49955C5.2609 21.4755 5.06748 21.2805 5.06748 21.0399C5.06749 20.9243 5.11299 20.8135 5.194 20.7318L8.12242 17.7787H1.88391C1.46635 17.7787 1.08479 17.5321 0.940417 17.1403C0.447961 15.8039 0.178589 14.3581 0.178589 12.8487C0.178589 6.04188 5.65067 0.523811 12.4008 0.523811ZM16.5831 9.24817C15.5743 8.05776 14.0753 7.30254 12.4008 7.30254C9.36322 7.30254 6.90079 9.78565 6.90079 12.8487C6.90079 13.4971 7.012 14.1191 7.21471 14.6975H11.178L13.1074 12.7518C14.1162 13.9422 15.6152 14.6975 17.2897 14.6975C20.3273 14.6975 22.7897 12.2143 22.7897 9.15127C22.7897 8.5029 22.6785 7.88087 22.4758 7.30254H18.5125L16.5831 9.24817Z" fill="#2C80FF"/>
<path d="M49.5528 5.91905H36.1852V8.30238H41.7428V15.9762H44.1261V8.30238H49.5528V5.91905ZM58.7876 13.5929H55.0842C53.6228 13.5929 52.439 12.409 52.439 10.9476C52.439 9.48619 53.6228 8.30238 55.0842 8.30238H58.7876C60.2542 8.30238 61.438 9.48619 61.438 10.9476C61.438 12.409 60.2542 13.5929 58.7876 13.5929ZM58.7876 5.91905H55.0842C52.308 5.91905 50.0557 8.17143 50.0557 10.9476C50.0557 13.7238 52.308 15.9762 55.0842 15.9762H58.7876C61.569 15.9762 63.8161 13.7238 63.8161 10.9476C63.8161 8.17143 61.569 5.91905 58.7876 5.91905ZM78.7814 15.9762H81.1647V8.70048C81.1647 7.16571 79.918 5.91905 78.3833 5.91905H78.1161C76.9952 5.91905 75.9895 6.58952 75.5547 7.61619L73.0561 13.5248L70.5628 7.61619C70.128 6.58952 69.1171 5.91905 68.0014 5.91905H67.7342C66.1995 5.91905 64.9528 7.16571 64.9528 8.70048V15.9762H67.3361V8.70048C67.3361 8.48048 67.5142 8.30238 67.7342 8.30238H68.0014C68.1638 8.30238 68.3052 8.39667 68.368 8.54333L70.9033 14.5462C71.2699 15.4157 72.1185 15.9762 73.0561 15.9762C73.999 15.9762 74.8476 15.4157 75.2142 14.5462L77.7495 8.54333C77.8123 8.39667 77.9538 8.30238 78.1161 8.30238H78.3833C78.6033 8.30238 78.7814 8.48048 78.7814 8.70048V15.9762ZM85.1299 8.55381L81.9452 15.9762H84.538L85.3342 14.1219H92.9295L93.7257 15.9762H96.3185L93.1338 8.55381C92.4476 6.95619 90.8709 5.91905 89.1318 5.91905C87.3928 5.91905 85.8161 6.95619 85.1299 8.55381ZM89.1318 8.30238C89.9228 8.30238 90.6352 8.76857 90.9442 9.49667L91.908 11.7438H86.3557L87.3195 9.49667C87.6338 8.76857 88.3461 8.30238 89.1318 8.30238ZM105.595 13.5929H96.9261V15.9762H105.595C107.313 15.9762 108.701 14.5829 108.701 12.8648C108.701 11.1781 107.355 9.80048 105.674 9.75857H105.595H100.038C99.6342 9.75857 99.3095 9.42857 99.3095 9.03048C99.3095 8.62714 99.6342 8.30238 100.038 8.30238H108.701V5.91905H100.038C98.3195 5.91905 96.9261 7.31238 96.9261 9.03048C96.9261 10.7486 98.3195 12.1367 100.038 12.1367H105.595L105.632 12.1419C106.014 12.1576 106.323 12.4771 106.323 12.8648C106.323 13.2681 105.999 13.5929 105.595 13.5929ZM122.006 5.91905C119.23 5.91905 116.978 8.17143 116.978 10.9476C116.978 13.7238 119.23 15.9762 122.006 15.9762H125.448C127.689 15.9762 129.591 14.5043 130.24 12.4771C130.104 12.5138 129.963 12.5348 129.816 12.5348H127.831C127.742 12.5348 127.658 12.5295 127.579 12.5138C127.098 13.1686 126.322 13.5929 125.448 13.5929H122.006C120.545 13.5929 119.361 12.409 119.361 10.9476C119.361 9.48619 120.545 8.30238 122.006 8.30238H125.448C126.322 8.30238 127.098 8.72667 127.579 9.38143C127.658 9.36571 127.742 9.36048 127.831 9.36048H129.816C129.963 9.36048 130.104 9.38143 130.24 9.4181C129.591 7.39095 127.689 5.91905 125.448 5.91905H122.006ZM139.643 13.5929H135.939C134.478 13.5929 133.294 12.409 133.294 10.9476C133.294 9.48619 134.478 8.30238 135.939 8.30238H139.643C141.109 8.30238 142.293 9.48619 142.293 10.9476C142.293 12.409 141.109 13.5929 139.643 13.5929ZM139.643 5.91905H135.939C133.163 5.91905 130.911 8.17143 130.911 10.9476C130.911 13.7238 133.163 15.9762 135.939 15.9762H139.643C142.424 15.9762 144.671 13.7238 144.671 10.9476C144.671 8.17143 142.424 5.91905 139.643 5.91905ZM154.289 13.5929H145.619V15.9762H154.289C156.007 15.9762 157.395 14.5829 157.395 12.8648C157.395 11.1781 156.049 9.80048 154.367 9.75857H154.289H148.731C148.328 9.75857 148.003 9.42857 148.003 9.03048C148.003 8.62714 148.328 8.30238 148.731 8.30238H157.395V5.91905H148.731C147.013 5.91905 145.619 7.31238 145.619 9.03048C145.619 10.7486 147.013 12.1367 148.731 12.1367H154.289L154.325 12.1419C154.708 12.1576 155.017 12.4771 155.017 12.8648C155.017 13.2681 154.692 13.5929 154.289 13.5929ZM171.475 5.91905H158.107V8.30238H163.665V15.9762H166.048V8.30238H171.475V5.91905ZM173.13 8.55381L169.945 15.9762H172.538L173.334 14.1219H180.929L181.726 15.9762H184.319L181.134 8.55381C180.448 6.95619 178.871 5.91905 177.132 5.91905C175.393 5.91905 173.816 6.95619 173.13 8.55381ZM177.132 8.30238C177.923 8.30238 178.635 8.76857 178.944 9.49667L179.908 11.7438H174.356L175.319 9.49667C175.634 8.76857 176.346 8.30238 177.132 8.30238Z" fill="white"/>
<path d="M184.616 5.67644C184.616 6.3731 184.051 6.93784 183.354 6.93784C182.657 6.93784 182.093 6.3731 182.093 5.67644C182.093 4.97977 182.657 4.41501 183.354 4.41501C184.051 4.41501 184.616 4.97977 184.616 5.67644Z" fill="white"/>
</g>
<defs>
<clipPath id="clip0_1_211">
<rect width="184.643" height="22" fill="white" transform="translate(0.178589)"/>
</clipPath>
</defs>
</svg>
